Coordinates
version=1
nRows=15
nColumns=34
inDegrees=yes

Units are S.I. units (second, meters, Newtons, ...)
If the header above contains a line with 'inDegrees', this indicates whether rotational values are in degrees (yes) or radians (no).

endheader
time	pelvis_tilt	pelvis_list	pelvis_rotation	pelvis_tx	pelvis_ty	pelvis_tz	hip_flexion_r	hip_adduction_r	hip_rotation_r	knee_angle_r	ankle_angle_r	subtalar_angle_r	mtp_angle_r	hip_flexion_l	hip_adduction_l	hip_rotation_l	knee_angle_l	ankle_angle_l	subtalar_angle_l	mtp_angle_l	lumbar_extension	lumbar_bending	lumbar_rotation	arm_flex_r	arm_add_r	arm_rot_r	elbow_flex_r	pro_sup_r	arm_flex_l	arm_add_l	arm_rot_l	elbow_flex_l	pro_sup_l
      0.00000000	     -3.40497091	     -0.23545838	     -4.73916153	      1.75406790	      0.89106277	     -0.20238353	      1.16299229	     -3.57329491	     -0.23235914	      3.19628276	      1.37806139	    -14.06623366	      0.00000000	      0.06485668	     -6.42835598	     -6.23821677	      4.57347988	      7.71366957	     -2.98743742	      0.00000000	     -9.53654301	      2.40171947	     -3.06359912	     16.43532353	     -4.22688629	     39.00280418	     73.69486872	     93.51405528	      8.82580851	     -6.21131964	     25.96356642	     74.50156358	     89.42886861
      0.01666670	     -5.52356227	      0.23128531	     -4.67587371	      1.75588408	      0.89013746	     -0.20351331	      3.84441405	     -3.86449976	      0.54340477	      3.74960674	      5.01219370	    -11.20576648	      0.00000000	      3.22569029	     -5.73373039	     -6.17393849	      4.92264903	      8.41763234	     -1.11332899	      0.00000000	     -6.70014521	      2.54723074	     -2.75976437	     14.91037843	     -3.57424931	     35.90857683	     72.16196464	     92.79142167	      8.33359027	     -5.65771572	     24.93599739	     73.17596442	     88.69080391
      0.03333330	     -5.55592101	      0.87787970	     -4.83772423	      1.75588441	      0.89071325	     -0.20325094	      3.53948689	     -4.72514867	      0.32346815	      2.83174432	      4.93570127	    -10.89838769	      0.00000000	      2.95869905	     -5.19465897	     -6.73872929	      4.13882693	      7.70071201	     -0.90483277	      0.00000000	     -6.75750166	      1.81221657	     -2.36189078	     14.82950379	     -3.41200481	     35.63425693	     71.58673299	     92.71906467	      8.74118718	     -6.01382809	     24.90491230	     72.56652496	     88.46389322
      0.05000000	     -4.72842814	      1.14418453	     -4.82999425	      1.75587699	      0.89294137	     -0.20304530	      2.16594466	     -5.17699689	      0.53807616	      1.94536932	      5.13717395	    -10.74974093	      0.00000000	      1.36614987	     -4.76511732	     -6.74727105	      2.90118625	      7.03118641	     -1.34467958	      0.00000000	     -7.74811792	      1.27699640	     -1.83596481	     14.85414650	     -3.50376244	     35.37549696	     70.85895972	     92.68259967	      9.70558061	     -6.34596346	     25.34236784	     71.74288763	     88.29199086
      0.06666670	     -4.03577557	      1.23397533	     -4.72166086	      1.75603152	      0.89454467	     -0.20298009	      0.91475727	     -5.31720758	      0.80465789	      1.03329036	      5.03435069	    -11.12547266	      0.00000000	      0.19797175	     -4.52083105	     -6.39398865	      2.05257136	      6.59347154	     -1.89350042	      0.00000000	     -8.70117317	      1.16310116	     -1.55001280	     14.82017401	     -3.77024844	     35.61710510	     71.47124821	     92.69263648	     10.43737403	     -6.63210495	     26.34417506	     71.40388535	     88.35148722
      0.08333330	     -3.45184672	      1.32001468	     -4.59873200	      1.75603856	      0.89594730	     -0.20270648	     -0.06794053	     -5.39548216	      1.18295828	      0.41036143	      4.95917056	    -11.69715743	      0.00000000	     -0.63787841	     -4.30576991	     -6.04040696	      1.57591436	      6.21189724	     -2.43593918	      0.00000000	     -9.42552661	      1.01832277	     -1.27939083	     14.78697274	     -4.01644796	     35.82385017	     72.31487327	     92.66096471	     11.02951089	     -6.85486507	     27.28692427	     71.33496275	     88.54836430
      0.10000000	     -3.29057039	      1.34241691	     -4.43214754	      1.75609236	      0.89648288	     -0.20246744	     -0.48295148	     -5.36713209	      1.30453341	      0.00000000	      5.01279042	    -11.99391598	      0.00000000	     -0.78565565	     -4.24604671	     -6.01934994	      1.53447522	      5.94813831	     -2.59381638	      0.00000000	     -9.59274000	      0.93142872	     -1.23827640	     14.68254290	     -4.05512766	     35.96719113	     72.66758098	     92.63736460	     11.24934250	     -6.90691018	     27.61788630	     71.31689395	     88.64616907
      0.11666670	     -3.27942220	      1.34780061	     -4.33160656	      1.75604244	      0.89644318	     -0.20238417	     -0.49549011	     -5.29668158	      1.31187009	      0.00000000	      5.02286249	    -12.03878342	      0.00000000	     -0.79230720	     -4.21668857	     -6.02620201	      1.45958485	      5.93734316	     -2.62750475	      0.00000000	     -9.63764235	      0.88639066	     -1.18969777	     14.73562246	     -3.99973965	     35.99370045	     72.73428068	     92.63473142	     11.27533183	     -6.92061428	     27.65340571	     71.30690530	     88.65664031
      0.13333330	     -3.26766478	      1.35624075	     -4.32311165	      1.75613507	      0.89617070	     -0.20243315	     -0.48825236	     -5.25463879	      1.31324213	      0.00000000	      5.02731480	    -12.04802284	      0.00000000	     -0.80118376	     -4.18168929	     -6.02466660	      1.45986113	      5.92923743	     -2.62948137	      0.00000000	     -9.64236845	      0.88301223	     -1.18970514	     14.73908344	     -3.99655525	     35.99854701	     72.74417722	     92.63436568	     11.28154762	     -6.92182215	     27.65940438	     71.30588200	     88.65817789
      0.15000000	     -2.52077627	      1.35725407	     -4.28141724	      1.75559714	      0.89676343	     -0.20238219	     -1.29598904	     -5.27199323	      2.08198994	      0.00000000	      4.59193864	    -13.84782555	      0.00000000	     -1.77640167	     -4.08002814	     -5.38846833	      1.04912105	      4.84359818	     -3.89498551	      0.00000000	    -10.82610536	      0.74738963	     -0.64883728	     14.92720496	     -4.76795206	     36.73968550	     74.52268392	     92.35052976	     12.42414352	     -7.25399487	     29.53500153	     71.22389064	     89.19251666
      0.16666670	     -2.52227908	      1.36944068	     -4.26541216	      1.75551802	      0.89654351	     -0.20201489	     -1.28611913	     -5.25391873	      2.08257763	      0.00000000	      4.59536364	    -13.85270892	      0.00000000	     -1.78112047	     -4.07862231	     -5.39052259	      1.04556024	      4.83957275	     -3.89546226	      0.00000000	    -10.83129906	      0.74409936	     -0.64880534	     14.92609588	     -4.77288667	     36.73687010	     74.52409368	     92.34920007	     12.42370457	     -7.26314284	     29.53514801	     71.21888639	     89.19350283
      0.18333330	     -2.55591778	      1.34492953	     -4.16339535	      1.75551402	      0.89656131	     -0.20150302	     -1.27104982	     -5.18013191	      2.06945374	      0.00000000	      4.64711963	    -13.93860448	      0.00000000	     -1.75075816	     -4.14484180	     -5.40046294	      0.98284311	      4.75384440	     -3.88279443	      0.00000000	    -10.89049754	      0.68141597	     -0.63450443	     14.91052171	     -4.85864214	     36.70881245	     74.53463367	     92.33677505	     12.42474760	     -7.41837817	     29.51392637	     71.16011673	     89.20014554
      0.20000000	     -2.55268006	      1.31426179	     -4.19730549	      1.75576270	      0.89664666	     -0.20099882	     -1.25950645	     -5.10331292	      2.02304965	      0.00000000	      4.72130450	    -14.10531803	      0.00000000	     -1.78596682	     -4.21711727	     -5.37562920	      0.98628988	      4.57025147	     -3.83350932	      0.00000000	    -10.86816394	      0.67325548	     -0.67637461	     14.83879599	     -4.98067258	     36.67904864	     74.56379171	     92.31726166	     12.48403031	     -7.58986224	     29.48875149	     71.11497832	     89.20994502
      0.21666670	     -2.57029747	      1.31951841	     -4.06489969	      1.75614713	      0.89661935	     -0.20094579	     -1.28869244	     -5.06780845	      2.03807322	      0.00000000	      4.73205931	    -14.16304522	      0.00000000	     -1.77604930	     -4.24952220	     -5.39825396	      0.94164904	      4.50371974	     -3.83319295	      0.00000000	    -10.87284886	      0.67332070	     -0.64512265	     14.81206211	     -4.99955761	     36.67821738	     74.58232853	     92.30844396	     12.47014601	     -7.65160778	     29.48885028	     71.09604816	     89.21425563
      0.23333330	     -2.63250493	      1.30588704	     -4.07538776	      1.75656758	      0.89640838	     -0.20092669	     -1.22841063	     -5.00779698	      2.78021869	      0.00000000	      3.94766309	    -16.11980911	      0.00000000	     -1.87638042	     -4.28453814	     -5.23132821	      0.66129252	      3.69872805	     -4.37759350	      0.00000000	    -10.84006413	      0.65433230	     -0.33578925	     14.27378752	     -5.30608814	     36.35979137	     75.43213981	     91.74775828	     12.74119876	     -7.82986973	     30.15442739	     71.07381254	     89.45456388
